# xmcd
#
# Track frame offsets:
#	150
#	15615
#	33462
#	51765
#	65222
#	80145
#	94922
#	110912
#	126082
#	138862
#	155010
#	170547
#	183692
#	200665
#	215402
#	228647
#
# Disc length: 3148 seconds
#
# Revision: 0
# Processed by: cddbd v1.5.1PL0 Copyright (c) Steve Scherf et al.
# Submitted via: dBpowerAMP V4.0
#
DISCID=f50c4a10
DTITLE=STELLA - handsome strings
DYEAR=1900
DGENRE=
TTITLE0=バッハ管絃楽組曲2番バディネリ
TTITLE1=My hearts will go on
TTITLE2=放課後の音楽室
TTITLE3=アベ・マリア
TTITLE4=風笛
TTITLE5=地球に乾杯
TTITLE6=霧の浅瀬
TTITLE7=黄昏のワルツ
TTITLE8=チャイコフスキーピアノ協奏曲1番1楽章
TTITLE9=To love you more
TTITLE10=Seven Angles
TTITLE11=愛を奏でて
TTITLE12=祈りのシチリアーノ
TTITLE13=Only love
TTITLE14=地上の星
TTITLE15=舞い降りた星
EXTD=
EXTT0=
EXTT1=
EXTT2=
EXTT3=
EXTT4=
EXTT5=
EXTT6=
EXTT7=
EXTT8=
EXTT9=
EXTT10=
EXTT11=
EXTT12=
EXTT13=
EXTT14=
EXTT15=
PLAYORDER=
